<?xml version="1.0" encoding="UTF-8" standalone="no"?>
<svg
   xmlns:dc="http://purl.org/dc/elements/1.1/"
   xmlns:cc="http://creativecommons.org/ns#"
   xmlns:rdf="http://www.w3.org/1999/02/22-rdf-syntax-ns#"
   xmlns:svg="http://www.w3.org/2000/svg"
   xmlns="http://www.w3.org/2000/svg"
   height="149.49507"
   width="171.64999"
   xml:space="preserve"
   viewBox="0 0 171.65 149.49507"
   y="0px"
   x="0px"
   id="Layer_1"
   version="1.1"><metadata
   id="metadata89"><rdf:RDF><cc:Work
       rdf:about=""><dc:format>image/svg+xml</dc:format><dc:type
         rdf:resource="http://purl.org/dc/dcmitype/StillImage" /><dc:title></dc:title></cc:Work></rdf:RDF></metadata><defs
   id="defs87">
	
	

		
		
		
		
		
		
		
	
		
		
		
		
		
		
		
		
		
		
		
		
		
		
		
		
		
		
		
		
		
	
			
		
				
				
			
					
				
					
				</defs>
<style
   id="style2"
   type="text/css">
	.st0{fill:#FFFFFF;}
</style>
<path
   style="fill:#ffffff"
   id="path66"
   d="m 125.31,0.75453865 c -0.32,0.15 -0.62,0.28999995 -0.91,0.45999995 L 91,20.494539 l 35.07,20.35 V 0.43453865 c -0.16,0.06 -0.33,0.12 -0.49,0.19 z"
   class="st0" /><polygon
   transform="translate(0,-0.00546135)"
   style="fill:#ffffff"
   id="polygon68"
   points="45.58,148.69 80.63,128.44 45.55,108.19 "
   class="st0" /><path
   style="fill:#ffffff"
   id="path70"
   d="m 0,29.334539 v 93.510001 c 0,1.86 1.01,3.58 2.65,4.48 l 36.89,21.55 v -1.6 l -0.04,-42.43 0.01,-2.11 v -5.010001 l 5.05,2.910001 83.97,48.36 c 0.11,0.06 0.28,0.13 0.45,0.2 l 0.26,0.12 c 0.87,0.34 1.79,0.3 3.85,-1.01 l 14.27,-8.12 22.35,-13.33 c 0.12,-0.1 0.24,-0.21 0.36,-0.32 l -23.29,-13.44 L 0,28.384539 Z"
   class="st0" /><polygon
   transform="translate(0,-0.00546135)"
   style="fill:#ffffff"
   id="polygon72"
   points="44.55,100.63 39.51,97.72 39.51,102.74 39.53,97.74 "
   class="st0" /><polygon
   transform="translate(0,-0.00546135)"
   style="fill:#ffffff"
   id="polygon74"
   points="39.54,148.87 39.53,147.27 39.53,148.87 "
   class="st0" /><path
   style="fill:#ffffff"
   id="path76"
   d="m 78.94,20.484539 v 0 L 53.71,5.8445386 l -8.19,-4.6 c -2.75,-1.53999995 -4.9,-1.63999995 -7.7,-0.35999995 0,0.01 -0.1,0.06 -0.2,0.11 C 37.29,1.1545386 36.96,1.3145386 36.65,1.5145386 L 4.94,19.954539 l -0.06,0.04 c -1.12,0.61 -2.1,1.48 -2.89,2.54 l 83.15,48 0.09,0.05 86.42,49.890001 V 28.324539 c 0,-3.44 -1.87,-6.61 -4.89,-8.26 L 133.93,1.0245386 C 133.36,0.71453865 132.75,0.45453865 132.11,0.26453865 V 51.324539 Z"
   class="st0" /><polygon
   transform="translate(0,-0.00546135)"
   style="fill:#ffffff"
   id="polygon78"
   points="78.94,20.49 132.11,51.34 "
   class="st0" />
</svg>